<svg width="117" height="29" viewBox="0 0 117 29" fill="none" xmlns="http://www.w3.org/2000/svg">
<path d="M5.44602 23L0.451705 5.54545H4.48295L7.37216 17.6733H7.51705L10.7045 5.54545H14.1562L17.3352 17.6989H17.4886L20.3778 5.54545H24.4091L19.4148 23H15.8182L12.4943 11.5881H12.358L9.04261 23H5.44602ZM30.8246 23.2557C29.5007 23.2557 28.3558 22.9744 27.3899 22.4119C26.4297 21.8437 25.6882 21.054 25.1655 20.0426C24.6428 19.0256 24.3814 17.8466 24.3814 16.5057C24.3814 15.1534 24.6428 13.9716 25.1655 12.9602C25.6882 11.9432 26.4297 11.1534 27.3899 10.5909C28.3558 10.0227 29.5007 9.73864 30.8246 9.73864C32.1484 9.73864 33.2905 10.0227 34.2507 10.5909C35.2166 11.1534 35.9609 11.9432 36.4837 12.9602C37.0064 13.9716 37.2678 15.1534 37.2678 16.5057C37.2678 17.8466 37.0064 19.0256 36.4837 20.0426C35.9609 21.054 35.2166 21.8437 34.2507 22.4119C33.2905 22.9744 32.1484 23.2557 30.8246 23.2557ZM30.8416 20.4432C31.4439 20.4432 31.9467 20.2727 32.3501 19.9318C32.7536 19.5852 33.0575 19.1136 33.2621 18.517C33.4723 17.9205 33.5774 17.2415 33.5774 16.4801C33.5774 15.7188 33.4723 15.0398 33.2621 14.4432C33.0575 13.8466 32.7536 13.375 32.3501 13.0284C31.9467 12.6818 31.4439 12.5085 30.8416 12.5085C30.2337 12.5085 29.7223 12.6818 29.3075 13.0284C28.8984 13.375 28.5888 13.8466 28.3786 14.4432C28.174 15.0398 28.0717 15.7188 28.0717 16.4801C28.0717 17.2415 28.174 17.9205 28.3786 18.517C28.5888 19.1136 28.8984 19.5852 29.3075 19.9318C29.7223 20.2727 30.2337 20.4432 30.8416 20.4432ZM41.8828 23L38.3203 9.90909H41.9936L44.022 18.7045H44.1413L46.255 9.90909H49.8601L52.0078 18.6534H52.1186L54.1129 9.90909H57.7777L54.2237 23H50.38L48.13 14.767H47.968L45.718 23H41.8828ZM62.2969 23L58.7344 9.90909H62.4077L64.4361 18.7045H64.5554L66.669 9.90909H70.2741L72.4219 18.6534H72.5327L74.527 9.90909H78.1918L74.6378 23H70.794L68.544 14.767H68.3821L66.1321 23H62.2969ZM85.7152 23.2557C84.3913 23.2557 83.2464 22.9744 82.2805 22.4119C81.3203 21.8437 80.5788 21.054 80.0561 20.0426C79.5334 19.0256 79.272 17.8466 79.272 16.5057C79.272 15.1534 79.5334 13.9716 80.0561 12.9602C80.5788 11.9432 81.3203 11.1534 82.2805 10.5909C83.2464 10.0227 84.3913 9.73864 85.7152 9.73864C87.0391 9.73864 88.1811 10.0227 89.1413 10.5909C90.1072 11.1534 90.8516 11.9432 91.3743 12.9602C91.897 13.9716 92.1584 15.1534 92.1584 16.5057C92.1584 17.8466 91.897 19.0256 91.3743 20.0426C90.8516 21.054 90.1072 21.8437 89.1413 22.4119C88.1811 22.9744 87.0391 23.2557 85.7152 23.2557ZM85.7322 20.4432C86.3345 20.4432 86.8374 20.2727 87.2408 19.9318C87.6442 19.5852 87.9482 19.1136 88.1527 18.517C88.3629 17.9205 88.468 17.2415 88.468 16.4801C88.468 15.7188 88.3629 15.0398 88.1527 14.4432C87.9482 13.8466 87.6442 13.375 87.2408 13.0284C86.8374 12.6818 86.3345 12.5085 85.7322 12.5085C85.1243 12.5085 84.6129 12.6818 84.1982 13.0284C83.7891 13.375 83.4794 13.8466 83.2692 14.4432C83.0646 15.0398 82.9624 15.7188 82.9624 16.4801C82.9624 17.2415 83.0646 17.9205 83.2692 18.517C83.4794 19.1136 83.7891 19.5852 84.1982 19.9318C84.6129 20.2727 85.1243 20.4432 85.7322 20.4432ZM97.2976 23L92.3033 5.54545H96.3345L99.2237 17.6733H99.3686L102.556 5.54545H106.008L109.187 17.6989H109.34L112.229 5.54545H116.261L111.266 23H107.67L104.346 11.5881H104.21L100.894 23H97.2976Z" fill="#52796F"/>
</svg>
